<svg xmlns="http://www.w3.org/2000/svg" width="1200" height="630" viewBox="0 0 1200 630" role="img" aria-labelledby="title desc">
  <title id="title">SlayNet social preview</title>
  <desc id="desc">Telegram bots, websites, landing pages, PWA and automation</desc>
  <defs>
    <linearGradient id="bg" x1="0" y1="0" x2="1" y2="1">
      <stop offset="0" stop-color="#0b1020"/>
      <stop offset="0.55" stop-color="#172044"/>
      <stop offset="1" stop-color="#063a4c"/>
    </linearGradient>
    <linearGradient id="accent" x1="0" y1="0" x2="1" y2="0">
      <stop offset="0" stop-color="#84c2ff"/>
      <stop offset="1" stop-color="#70f0d6"/>
    </linearGradient>
  </defs>
  <rect width="1200" height="630" fill="url(#bg)"/>
  <circle cx="1040" cy="90" r="210" fill="#00b8ff" opacity="0.16"/>
  <circle cx="140" cy="560" r="260" fill="#405cff" opacity="0.2"/>
  <rect x="70" y="70" width="1060" height="490" rx="32" fill="#111928" opacity="0.82" stroke="#ffffff" stroke-opacity="0.12"/>
  <text x="115" y="170" fill="#f3f6ff" font-family="Inter, Arial, sans-serif" font-size="52" font-weight="800">slaynet.fun</text>
  <rect x="115" y="205" width="260" height="8" rx="4" fill="url(#accent)"/>
  <text x="115" y="305" fill="#f3f6ff" font-family="Inter, Arial, sans-serif" font-size="64" font-weight="800">Telegram bots</text>
  <text x="115" y="385" fill="#f3f6ff" font-family="Inter, Arial, sans-serif" font-size="64" font-weight="800">Websites and automation</text>
  <text x="115" y="465" fill="#a9b1c7" font-family="Inter, Arial, sans-serif" font-size="34">Landing pages • PWA • AI integrations • MVP</text>
  <g transform="translate(835 190)">
    <rect width="220" height="250" rx="24" fill="#0b1020" stroke="#84c2ff" stroke-opacity="0.45"/>
    <circle cx="58" cy="65" r="18" fill="#84c2ff"/>
    <rect x="90" y="52" width="80" height="12" rx="6" fill="#f3f6ff" opacity="0.9"/>
    <rect x="42" y="112" width="140" height="16" rx="8" fill="#a9b1c7" opacity="0.55"/>
    <rect x="42" y="148" width="108" height="16" rx="8" fill="#a9b1c7" opacity="0.38"/>
    <rect x="42" y="190" width="132" height="34" rx="17" fill="url(#accent)"/>
  </g>
</svg>
